<svg id="visual" viewBox="0 0 900 450" width="900" height="450" xmlns="http://www.w3.org/2000/svg" xmlns:xlink="http://www.w3.org/1999/xlink" version="1.1"><rect x="0" y="0" width="900" height="450" fill="#06070f"></rect><defs><linearGradient id="grad1_0" x1="50%" y1="0%" x2="100%" y2="100%"><stop offset="10%" stop-color="#3851c2" stop-opacity="1"></stop><stop offset="90%" stop-color="#3851c2" stop-opacity="1"></stop></linearGradient></defs><defs><linearGradient id="grad1_1" x1="50%" y1="0%" x2="100%" y2="100%"><stop offset="10%" stop-color="#3851c2" stop-opacity="1"></stop><stop offset="90%" stop-color="#1c2e63" stop-opacity="1"></stop></linearGradient></defs><defs><linearGradient id="grad1_2" x1="50%" y1="0%" x2="100%" y2="100%"><stop offset="10%" stop-color="#06070f" stop-opacity="1"></stop><stop offset="90%" stop-color="#1c2e63" stop-opacity="1"></stop></linearGradient></defs><defs><linearGradient id="grad2_0" x1="0%" y1="0%" x2="50%" y2="100%"><stop offset="10%" stop-color="#3851c2" stop-opacity="1"></stop><stop offset="90%" stop-color="#3851c2" stop-opacity="1"></stop></linearGradient></defs><defs><linearGradient id="grad2_1" x1="0%" y1="0%" x2="50%" y2="100%"><stop offset="10%" stop-color="#1c2e63" stop-opacity="1"></stop><stop offset="90%" stop-color="#3851c2" stop-opacity="1"></stop></linearGradient></defs><defs><linearGradient id="grad2_2" x1="0%" y1="0%" x2="50%" y2="100%"><stop offset="10%" stop-color="#1c2e63" stop-opacity="1"></stop><stop offset="90%" stop-color="#06070f" stop-opacity="1"></stop></linearGradient></defs><g transform="translate(900, 0)"><path d="M0 274C-38.4 302.8 -76.7 331.7 -104.3 321C-131.9 310.3 -148.6 260 -165.8 228.1C-182.9 196.3 -200.4 182.8 -227.3 165.2C-254.2 147.6 -290.5 125.9 -300.5 97.6C-310.5 69.4 -294.3 34.7 -278 0L0 0Z" fill="#151d38"></path><path d="M0 182.7C-25.6 201.9 -51.2 221.1 -69.5 214C-87.9 206.9 -99.1 173.3 -110.5 152.1C-121.9 130.8 -133.6 121.8 -151.6 110.1C-169.5 98.4 -193.7 83.9 -200.4 65.1C-207 46.3 -196.2 23.1 -185.3 0L0 0Z" fill="#274092"></path><path d="M0 91.3C-12.8 100.9 -25.6 110.6 -34.8 107C-44 103.4 -49.5 86.7 -55.3 76C-61 65.4 -66.8 60.9 -75.8 55.1C-84.7 49.2 -96.8 42 -100.2 32.5C-103.5 23.1 -98.1 11.6 -92.7 0L0 0Z" fill="#3851c2"></path></g><g transform="translate(0, 450)"><path d="M0 -308C36.2 -319 72.4 -329.9 103.8 -319.6C135.3 -309.2 162 -277.4 180.5 -248.4C198.9 -219.3 209 -192.9 235.4 -171C261.8 -149.2 304.5 -132 321 -104.3C337.5 -76.6 327.7 -38.3 318 0L0 0Z" fill="#151d38"></path><path d="M0 -205.3C24.1 -212.6 48.2 -220 69.2 -213C90.2 -206.1 108 -185 120.3 -165.6C132.6 -146.2 139.3 -128.6 156.9 -114C174.6 -99.5 203 -88 214 -69.5C225 -51 218.5 -25.5 212 0L0 0Z" fill="#274092"></path><path d="M0 -102.7C12.1 -106.3 24.1 -110 34.6 -106.5C45.1 -103.1 54 -92.5 60.2 -82.8C66.3 -73.1 69.7 -64.3 78.5 -57C87.3 -49.7 101.5 -44 107 -34.8C112.5 -25.5 109.2 -12.8 106 0L0 0Z" fill="#3851c2"></path></g></svg>